<svg width="109" height="109" xmlns="http://www.w3.org/2000/svg" xmlns:xlink="http://www.w3.org/1999/xlink" xml:space="preserve" overflow="hidden"><g transform="translate(-34 -29)"><path d="M56.7099 110.659C57.8579 110.722 61.2074 110.75 61.2074 110.75L122.567 110.75C130.12 110.72 136.218 104.574 136.188 97.0213 136.158 89.5556 130.146 83.4934 122.681 83.4019L121.546 83.4019C121.535 77.8999 118.872 72.7408 114.392 69.5457 109.854 66.3705 104.067 65.568 98.8364 67.3884 93.7002 57.3462 81.3956 53.3691 71.3534 58.5053 64.5582 61.9808 60.268 68.9552 60.2303 76.5876L60.2303 76.8147C59.3394 76.6689 58.4384 76.5955 57.5357 76.5952 48.1121 76.5843 40.4639 84.2147 40.453 93.6382 40.4501 96.1451 40.9996 98.6218 42.0624 100.892 44.8206 106.556 50.421 110.29 56.7099 110.659ZM45.6938 84.7673C48.5266 81.0879 52.8916 78.9123 57.535 78.8658 58.3147 78.8665 59.093 78.9298 59.8626 79.0553L62.5003 79.4868 62.5003 76.5871C62.562 66.5604 70.7403 58.4822 80.767 58.5439 87.5411 58.5855 93.7286 62.3952 96.8158 68.4252L97.7175 70.1816 99.5821 69.5329C107.244 66.7937 115.675 70.784 118.415 78.4457 118.983 80.0362 119.274 81.7127 119.275 83.4019L119.275 85.6727 122.681 85.6727C128.978 85.7654 134.008 90.9456 133.916 97.2431 133.824 103.454 128.779 108.45 122.567 108.479L58.8568 108.479 56.8332 108.392C48.6935 108.041 42.3795 101.158 42.7305 93.018 42.8592 90.031 43.8925 87.1538 45.6934 84.7673Z" stroke="#000000" stroke-width="2.01852" fill="#FFFFFF"/></g></svg>